<mxfile host="app.diagrams.net" modified="2020-04-08T00:14:51.722Z" agent="5.0 (Macintosh; Intel Mac OS X 10_14_6) AppleWebKit/537.36 (KHTML, like Gecko) Chrome/80.0.3987.163 Safari/537.36" etag="fMLiLkVNlZo3_oTw4NiR" version="12.9.8" type="github">
  <diagram name="Page-1" id="efa7a0a1-bf9b-a30e-e6df-94a7791c09e9">
    <mxGraphModel dx="786" dy="460" grid="1" gridSize="10" guides="1" tooltips="1" connect="1" arrows="1" fold="1" page="1" pageScale="1" pageWidth="826" pageHeight="1169" background="#ffffff" math="0" shadow="0">
      <root>
        <mxCell id="0" />
        <mxCell id="1" parent="0" />
        <mxCell id="24" value="&lt;p style=&quot;margin: 0px ; margin-top: 4px ; text-align: center ; text-decoration: underline&quot;&gt;&lt;b&gt;Video&lt;/b&gt;&lt;/p&gt;&lt;hr&gt;&lt;p style=&quot;margin: 0px ; margin-left: 8px&quot;&gt;Video ID&lt;/p&gt;&lt;p style=&quot;margin: 0px ; margin-left: 8px&quot;&gt;Instructional category (&lt;/p&gt;&lt;p style=&quot;margin: 0px ; margin-left: 8px&quot;&gt;&amp;nbsp; language, math,&lt;/p&gt;&lt;p style=&quot;margin: 0px ; margin-left: 8px&quot;&gt;&amp;nbsp; social-emotional&amp;nbsp;&lt;/p&gt;&lt;p style=&quot;margin: 0px ; margin-left: 8px&quot;&gt;&amp;nbsp; development etc.)&lt;/p&gt;&lt;p style=&quot;margin: 0px ; margin-left: 8px&quot;&gt;Content (video)&lt;/p&gt;&lt;div&gt;&lt;br&gt;&lt;/div&gt;" style="verticalAlign=top;align=left;overflow=fill;fontSize=12;fontFamily=Helvetica;html=1;strokeColor=#82b366;shadow=1;fillColor=#d5e8d4;" parent="1" vertex="1">
          <mxGeometry x="93" y="234" width="150" height="130" as="geometry" />
        </mxCell>
        <mxCell id="26" value="&lt;p style=&quot;margin: 4px 0px 0px ; text-align: center&quot;&gt;&lt;b&gt;&lt;u&gt;Child profile&lt;/u&gt;&lt;/b&gt;&lt;br&gt;&lt;/p&gt;&lt;hr&gt;&lt;p style=&quot;margin: 0px ; margin-left: 8px&quot;&gt;Parent ID&lt;/p&gt;&lt;p style=&quot;margin: 0px ; margin-left: 8px&quot;&gt;Child ID&lt;/p&gt;&lt;p style=&quot;margin: 0px ; margin-left: 8px&quot;&gt;&lt;span&gt;Age&lt;/span&gt;&lt;/p&gt;&lt;p style=&quot;margin: 0px ; margin-left: 8px&quot;&gt;&lt;span&gt;Time Zone&lt;/span&gt;&lt;/p&gt;&lt;div&gt;&lt;br&gt;&lt;/div&gt;" style="verticalAlign=top;align=left;overflow=fill;fontSize=12;fontFamily=Helvetica;html=1;strokeColor=#82b366;shadow=1;fillColor=#d5e8d4;" parent="1" vertex="1">
          <mxGeometry x="653" y="470" width="90" height="100" as="geometry" />
        </mxCell>
        <mxCell id="WbOcBk4rOMOH6EZoIpOP-131" style="edgeStyle=orthogonalEdgeStyle;rounded=0;orthogonalLoop=1;jettySize=auto;html=1;entryX=0.5;entryY=0;entryDx=0;entryDy=0;startArrow=classic;startFill=1;endArrow=diamondThin;endFill=1;" parent="1" source="29" target="26" edge="1">
          <mxGeometry relative="1" as="geometry">
            <Array as="points">
              <mxPoint x="698" y="430" />
              <mxPoint x="698" y="430" />
            </Array>
          </mxGeometry>
        </mxCell>
        <mxCell id="WbOcBk4rOMOH6EZoIpOP-132" style="edgeStyle=orthogonalEdgeStyle;rounded=0;orthogonalLoop=1;jettySize=auto;html=1;startArrow=classic;startFill=1;endArrow=diamondThin;endFill=1;" parent="1" source="29" target="WbOcBk4rOMOH6EZoIpOP-126" edge="1">
          <mxGeometry relative="1" as="geometry">
            <Array as="points">
              <mxPoint x="583" y="490" />
              <mxPoint x="513" y="490" />
            </Array>
          </mxGeometry>
        </mxCell>
        <mxCell id="29" value="&lt;p style=&quot;margin: 0px ; margin-top: 4px ; text-align: center ; text-decoration: underline&quot;&gt;&lt;b&gt;Child State&lt;/b&gt;&lt;/p&gt;&lt;hr&gt;&lt;p style=&quot;margin: 0px ; margin-left: 8px&quot;&gt;Child ID&lt;/p&gt;&lt;p style=&quot;margin: 0px ; margin-left: 8px&quot;&gt;LearningPath ID&lt;/p&gt;&lt;p style=&quot;margin: 0px ; margin-left: 8px&quot;&gt;Library ID&lt;/p&gt;&lt;p style=&quot;margin: 0px ; margin-left: 8px&quot;&gt;Point of progress in LearningPath&lt;/p&gt;&lt;p style=&quot;margin: 0px ; margin-left: 8px&quot;&gt;Character bedroom states&lt;/p&gt;&lt;p style=&quot;margin: 0px ; margin-left: 8px&quot;&gt;Task/Ebook/Video completion record IDs&lt;/p&gt;&lt;p style=&quot;margin: 0px ; margin-left: 8px&quot;&gt;&lt;br&gt;&lt;/p&gt;" style="verticalAlign=top;align=left;overflow=fill;fontSize=12;fontFamily=Helvetica;html=1;strokeColor=#d6b656;shadow=1;fillColor=#fff2cc;" parent="1" vertex="1">
          <mxGeometry x="513.54" y="260" width="229.46" height="130" as="geometry" />
        </mxCell>
        <mxCell id="WbOcBk4rOMOH6EZoIpOP-133" style="edgeStyle=orthogonalEdgeStyle;rounded=0;orthogonalLoop=1;jettySize=auto;html=1;entryX=0;entryY=0.75;entryDx=0;entryDy=0;startArrow=classic;startFill=1;endArrow=diamondThin;endFill=0;" parent="1" source="WbOcBk4rOMOH6EZoIpOP-118" target="29" edge="1">
          <mxGeometry relative="1" as="geometry" />
        </mxCell>
        <mxCell id="WbOcBk4rOMOH6EZoIpOP-139" style="edgeStyle=orthogonalEdgeStyle;rounded=0;orthogonalLoop=1;jettySize=auto;html=1;entryX=1;entryY=0.75;entryDx=0;entryDy=0;startArrow=classic;startFill=1;endArrow=diamondThin;endFill=0;" parent="1" source="WbOcBk4rOMOH6EZoIpOP-118" target="24" edge="1">
          <mxGeometry relative="1" as="geometry">
            <Array as="points">
              <mxPoint x="263" y="440" />
              <mxPoint x="263" y="332" />
            </Array>
          </mxGeometry>
        </mxCell>
        <mxCell id="WbOcBk4rOMOH6EZoIpOP-140" style="edgeStyle=orthogonalEdgeStyle;rounded=0;orthogonalLoop=1;jettySize=auto;html=1;startArrow=classic;startFill=1;endArrow=diamondThin;endFill=0;" parent="1" source="WbOcBk4rOMOH6EZoIpOP-118" edge="1">
          <mxGeometry relative="1" as="geometry">
            <mxPoint x="243" y="450" as="targetPoint" />
            <Array as="points">
              <mxPoint x="273" y="450" />
              <mxPoint x="273" y="450" />
            </Array>
          </mxGeometry>
        </mxCell>
        <mxCell id="WbOcBk4rOMOH6EZoIpOP-141" style="edgeStyle=orthogonalEdgeStyle;rounded=0;orthogonalLoop=1;jettySize=auto;html=1;entryX=1;entryY=0.25;entryDx=0;entryDy=0;startArrow=classic;startFill=1;endArrow=diamondThin;endFill=0;" parent="1" source="WbOcBk4rOMOH6EZoIpOP-118" target="WbOcBk4rOMOH6EZoIpOP-124" edge="1">
          <mxGeometry relative="1" as="geometry">
            <Array as="points">
              <mxPoint x="263" y="480" />
              <mxPoint x="263" y="600" />
            </Array>
          </mxGeometry>
        </mxCell>
        <mxCell id="WbOcBk4rOMOH6EZoIpOP-118" value="&lt;p style=&quot;margin: 4px 0px 0px ; text-align: center&quot;&gt;&lt;b&gt;&lt;u&gt;Learning&lt;/u&gt;&lt;/b&gt;&lt;/p&gt;&lt;p style=&quot;margin: 4px 0px 0px ; text-align: center&quot;&gt;&lt;b&gt;&lt;u&gt;path&lt;/u&gt;&lt;/b&gt;&lt;/p&gt;&lt;hr&gt;&lt;p style=&quot;margin: 0px ; margin-left: 8px&quot;&gt;Path ID&lt;/p&gt;&lt;p style=&quot;margin: 0px ; margin-left: 8px&quot;&gt;Applicable age&lt;/p&gt;&lt;p style=&quot;margin: 0px ; margin-left: 8px&quot;&gt;Sequence of videos,&amp;nbsp;&lt;/p&gt;&lt;p style=&quot;margin: 0px ; margin-left: 8px&quot;&gt;&lt;span&gt;&amp;nbsp; ebooks, tasks, and gifts&lt;/span&gt;&lt;/p&gt;&lt;p style=&quot;margin: 0px ; margin-left: 8px&quot;&gt;&lt;br&gt;&lt;/p&gt;&lt;div&gt;&lt;br&gt;&lt;/div&gt;" style="verticalAlign=top;align=left;overflow=fill;fontSize=12;fontFamily=Helvetica;html=1;strokeColor=#d6b656;shadow=1;fillColor=#fff2cc;" parent="1" vertex="1">
          <mxGeometry x="303" y="410" width="160" height="110" as="geometry" />
        </mxCell>
        <mxCell id="WbOcBk4rOMOH6EZoIpOP-121" value="&lt;p style=&quot;margin: 0px ; margin-top: 4px ; text-align: center ; text-decoration: underline&quot;&gt;&lt;b&gt;Task&lt;/b&gt;&lt;/p&gt;&lt;hr&gt;&lt;p style=&quot;margin: 0px ; margin-left: 8px&quot;&gt;Task ID&lt;/p&gt;&lt;p style=&quot;margin: 0px ; margin-left: 8px&quot;&gt;Content Type (multiple&amp;nbsp;&lt;/p&gt;&lt;p style=&quot;margin: 0px ; margin-left: 8px&quot;&gt;&amp;nbsp; choice question,&amp;nbsp;&lt;/p&gt;&lt;p style=&quot;margin: 0px ; margin-left: 8px&quot;&gt;&amp;nbsp; connect-the-dots, etc)&lt;/p&gt;&lt;p style=&quot;margin: 0px ; margin-left: 8px&quot;&gt;Instructional category (&lt;/p&gt;&lt;p style=&quot;margin: 0px ; margin-left: 8px&quot;&gt;&amp;nbsp; language, math etc.)&lt;/p&gt;&lt;p style=&quot;margin: 0px ; margin-left: 8px&quot;&gt;Content (graphics,&lt;/p&gt;&lt;p style=&quot;margin: 0px ; margin-left: 8px&quot;&gt;&amp;nbsp; audio, video)&lt;/p&gt;&lt;p style=&quot;margin: 0px ; margin-left: 8px&quot;&gt;Prompts and&amp;nbsp;&lt;/p&gt;&lt;p style=&quot;margin: 0px ; margin-left: 8px&quot;&gt;&amp;nbsp; allowed actions&lt;/p&gt;&lt;div&gt;&lt;br&gt;&lt;/div&gt;" style="verticalAlign=top;align=left;overflow=fill;fontSize=12;fontFamily=Helvetica;html=1;strokeColor=#82b366;shadow=1;fillColor=#d5e8d4;" parent="1" vertex="1">
          <mxGeometry x="93" y="377.5" width="150" height="175" as="geometry" />
        </mxCell>
        <mxCell id="WbOcBk4rOMOH6EZoIpOP-124" value="&lt;p style=&quot;margin: 0px ; margin-top: 4px ; text-align: center ; text-decoration: underline&quot;&gt;&lt;b&gt;EBook&lt;/b&gt;&lt;/p&gt;&lt;hr&gt;&lt;p style=&quot;margin: 0px ; margin-left: 8px&quot;&gt;Ebook ID&lt;/p&gt;&lt;p style=&quot;margin: 0px ; margin-left: 8px&quot;&gt;Instructional category (&lt;/p&gt;&lt;p style=&quot;margin: 0px ; margin-left: 8px&quot;&gt;&amp;nbsp; language, math etc.)&lt;/p&gt;&lt;p style=&quot;margin: 0px ; margin-left: 8px&quot;&gt;Content (graphics,&lt;/p&gt;&lt;p style=&quot;margin: 0px ; margin-left: 8px&quot;&gt;&amp;nbsp; audio, video)&lt;/p&gt;&lt;p style=&quot;margin: 0px ; margin-left: 8px&quot;&gt;Pages and texts&lt;/p&gt;&lt;div&gt;&lt;br&gt;&lt;/div&gt;" style="verticalAlign=top;align=left;overflow=fill;fontSize=12;fontFamily=Helvetica;html=1;strokeColor=#82b366;shadow=1;fillColor=#d5e8d4;" parent="1" vertex="1">
          <mxGeometry x="93" y="570" width="150" height="120" as="geometry" />
        </mxCell>
        <mxCell id="WbOcBk4rOMOH6EZoIpOP-144" style="edgeStyle=orthogonalEdgeStyle;rounded=0;orthogonalLoop=1;jettySize=auto;html=1;entryX=0.5;entryY=0;entryDx=0;entryDy=0;startArrow=classic;startFill=1;endArrow=diamondThin;endFill=0;" parent="1" source="WbOcBk4rOMOH6EZoIpOP-126" target="WbOcBk4rOMOH6EZoIpOP-142" edge="1">
          <mxGeometry relative="1" as="geometry" />
        </mxCell>
        <mxCell id="WbOcBk4rOMOH6EZoIpOP-126" value="&lt;p style=&quot;margin: 4px 0px 0px ; text-align: center&quot;&gt;&lt;b&gt;&lt;u&gt;Task/Ebook/Video&lt;/u&gt;&lt;/b&gt;&lt;/p&gt;&lt;p style=&quot;margin: 4px 0px 0px ; text-align: center&quot;&gt;&lt;b&gt;&lt;u&gt;completion record&lt;/u&gt;&lt;/b&gt;&lt;/p&gt;&lt;hr&gt;&amp;nbsp; Record ID&lt;br&gt;&lt;p style=&quot;margin: 0px ; margin-left: 8px&quot;&gt;Child ID&lt;/p&gt;&lt;p style=&quot;margin: 0px ; margin-left: 8px&quot;&gt;Task/EBook/Video ID&lt;/p&gt;&lt;p style=&quot;margin: 0px ; margin-left: 8px&quot;&gt;Response ID&lt;br&gt;&lt;/p&gt;&lt;p style=&quot;margin: 0px ; margin-left: 8px&quot;&gt;Timestamp&lt;/p&gt;&lt;p style=&quot;margin: 0px 0px 0px 8px&quot;&gt;Is_library_activation&lt;/p&gt;&lt;p style=&quot;margin: 0px 0px 0px 8px&quot;&gt;Is_learningpath_activation&lt;/p&gt;&lt;p style=&quot;margin: 0px ; margin-left: 8px&quot;&gt;Proficiency status&lt;/p&gt;&lt;div&gt;&lt;br&gt;&lt;/div&gt;" style="verticalAlign=top;align=left;overflow=fill;fontSize=12;fontFamily=Helvetica;html=1;strokeColor=#82b366;shadow=1;fillColor=#d5e8d4;" parent="1" vertex="1">
          <mxGeometry x="453" y="540" width="157" height="170" as="geometry" />
        </mxCell>
        <mxCell id="WbOcBk4rOMOH6EZoIpOP-134" style="edgeStyle=orthogonalEdgeStyle;rounded=0;orthogonalLoop=1;jettySize=auto;html=1;startArrow=classic;startFill=1;endArrow=diamondThin;endFill=0;" parent="1" source="WbOcBk4rOMOH6EZoIpOP-128" target="29" edge="1">
          <mxGeometry relative="1" as="geometry">
            <Array as="points">
              <mxPoint x="503" y="315" />
              <mxPoint x="503" y="315" />
            </Array>
          </mxGeometry>
        </mxCell>
        <mxCell id="WbOcBk4rOMOH6EZoIpOP-136" style="edgeStyle=orthogonalEdgeStyle;rounded=0;orthogonalLoop=1;jettySize=auto;html=1;entryX=1;entryY=0.5;entryDx=0;entryDy=0;startArrow=classic;startFill=1;endArrow=diamondThin;endFill=0;" parent="1" source="WbOcBk4rOMOH6EZoIpOP-128" target="24" edge="1">
          <mxGeometry relative="1" as="geometry">
            <Array as="points">
              <mxPoint x="293" y="299" />
              <mxPoint x="293" y="299" />
            </Array>
          </mxGeometry>
        </mxCell>
        <mxCell id="WbOcBk4rOMOH6EZoIpOP-137" style="edgeStyle=orthogonalEdgeStyle;rounded=0;orthogonalLoop=1;jettySize=auto;html=1;entryX=1;entryY=0.25;entryDx=0;entryDy=0;startArrow=classic;startFill=1;endArrow=diamondThin;endFill=0;" parent="1" source="WbOcBk4rOMOH6EZoIpOP-128" target="WbOcBk4rOMOH6EZoIpOP-121" edge="1">
          <mxGeometry relative="1" as="geometry">
            <Array as="points">
              <mxPoint x="273" y="315" />
              <mxPoint x="273" y="421" />
            </Array>
          </mxGeometry>
        </mxCell>
        <mxCell id="WbOcBk4rOMOH6EZoIpOP-138" style="edgeStyle=orthogonalEdgeStyle;rounded=0;orthogonalLoop=1;jettySize=auto;html=1;entryX=1;entryY=0.5;entryDx=0;entryDy=0;startArrow=classic;startFill=1;endArrow=diamondThin;endFill=0;" parent="1" source="WbOcBk4rOMOH6EZoIpOP-128" target="WbOcBk4rOMOH6EZoIpOP-124" edge="1">
          <mxGeometry relative="1" as="geometry">
            <Array as="points">
              <mxPoint x="283" y="330" />
              <mxPoint x="283" y="630" />
            </Array>
          </mxGeometry>
        </mxCell>
        <mxCell id="WbOcBk4rOMOH6EZoIpOP-128" value="&lt;p style=&quot;margin: 4px 0px 0px ; text-align: center&quot;&gt;&lt;b&gt;&lt;u&gt;Library&lt;/u&gt;&lt;/b&gt;&lt;/p&gt;&lt;hr&gt;&lt;p style=&quot;margin: 0px ; margin-left: 8px&quot;&gt;Library ID&lt;/p&gt;&lt;p style=&quot;margin: 0px ; margin-left: 8px&quot;&gt;Videos, ebooks,&lt;/p&gt;&lt;p style=&quot;margin: 0px ; margin-left: 8px&quot;&gt;&amp;nbsp; tasks IDs&lt;/p&gt;&lt;p style=&quot;margin: 0px ; margin-left: 8px&quot;&gt;Category and&amp;nbsp;&lt;/p&gt;&lt;p style=&quot;margin: 0px ; margin-left: 8px&quot;&gt;&amp;nbsp; ordering information&lt;/p&gt;&lt;div&gt;&lt;br&gt;&lt;/div&gt;&lt;div&gt;&lt;br&gt;&lt;/div&gt;" style="verticalAlign=top;align=left;overflow=fill;fontSize=12;fontFamily=Helvetica;html=1;strokeColor=#d6b656;shadow=1;fillColor=#fff2cc;" parent="1" vertex="1">
          <mxGeometry x="303" y="260" width="160" height="110" as="geometry" />
        </mxCell>
        <mxCell id="WbOcBk4rOMOH6EZoIpOP-142" value="&lt;div style=&quot;text-align: center&quot;&gt;&lt;b&gt;&lt;u&gt;Task/Ebook/Video&lt;/u&gt;&lt;/b&gt;&lt;/div&gt;&lt;p style=&quot;margin: 4px 0px 0px ; text-align: center&quot;&gt;&lt;b&gt;&lt;u&gt;response record&lt;/u&gt;&lt;/b&gt;&lt;br&gt;&lt;/p&gt;&lt;hr&gt;&lt;p style=&quot;margin: 0px ; margin-left: 8px&quot;&gt;Response ID&lt;/p&gt;&lt;p style=&quot;margin: 0px ; margin-left: 8px&quot;&gt;Child ID&lt;/p&gt;&lt;p style=&quot;margin: 0px 0px 0px 8px&quot;&gt;Task/EBook/Video ID&lt;/p&gt;&lt;p style=&quot;margin: 0px ; margin-left: 8px&quot;&gt;&lt;span&gt;Start timestamp&lt;/span&gt;&lt;br&gt;&lt;/p&gt;&lt;p style=&quot;margin: 0px ; margin-left: 8px&quot;&gt;End timestamp&lt;/p&gt;&lt;p style=&quot;margin: 0px ; margin-left: 8px&quot;&gt;Prompt-response pairs + timestamps&lt;/p&gt;&lt;p style=&quot;margin: 0px ; margin-left: 8px&quot;&gt;Correctness (if applicable)&lt;/p&gt;&lt;p style=&quot;margin: 0px ; margin-left: 8px&quot;&gt;Help character activations&amp;nbsp;&lt;/p&gt;&amp;nbsp;(if applicable)&lt;p style=&quot;margin: 0px ; margin-left: 8px&quot;&gt;Instruction video activations&amp;nbsp;&lt;/p&gt;&amp;nbsp;(if applicable)&lt;div&gt;&lt;br&gt;&lt;/div&gt;" style="verticalAlign=top;align=left;overflow=fill;fontSize=12;fontFamily=Helvetica;html=1;strokeColor=#82b366;shadow=1;fillColor=#d5e8d4;" parent="1" vertex="1">
          <mxGeometry x="415.5" y="750" width="232" height="200" as="geometry" />
        </mxCell>
        <mxCell id="vwwBiS2AWnt76K8ccuiu-29" style="edgeStyle=orthogonalEdgeStyle;rounded=0;orthogonalLoop=1;jettySize=auto;html=1;exitX=0.5;exitY=1;exitDx=0;exitDy=0;" parent="1" source="WbOcBk4rOMOH6EZoIpOP-126" target="WbOcBk4rOMOH6EZoIpOP-126" edge="1">
          <mxGeometry relative="1" as="geometry" />
        </mxCell>
      </root>
    </mxGraphModel>
  </diagram>
</mxfile>
